<svg xmlns="http://www.w3.org/2000/svg" version="1.1" xmlns:xlink="http://www.w3.org/1999/xlink" xmlns:svgjs="http://svgjs.dev/svgjs" width="2000" height="1500" viewBox="0 0 2000 1500"><rect width="2000" height="1500" fill="#ffffff"></rect><g transform="matrix(0.75,0,0,0.75,249.090909090909,491.30391487543466)"><svg viewBox="0 0 396 137" data-background-color="#ffffff" preserveAspectRatio="xMidYMid meet" height="691" width="2000" xmlns="http://www.w3.org/2000/svg" xmlns:xlink="http://www.w3.org/1999/xlink"><g id="tight-bounds" transform="matrix(1,0,0,1,0.24000000000003752,-0.11338415423935544)"><svg viewBox="0 0 395.5199999999999 137.22676830847868" height="137.22676830847868" width="395.5199999999999"><g><svg viewBox="0 0 397.4975999999999 137.91290215002107" height="137.22676830847868" width="395.5199999999999"><g><rect width="397.4975999999999" height="3.94509831701987" x="0" y="70.78505050164254" fill="#4b91f1" opacity="1" stroke-width="0" stroke="transparent" fill-opacity="1" class="rect-qz-0" data-fill-palette-color="primary" rx="1%" id="qz-0" data-palette-color="#4b91f1"></rect></g><g><rect width="397.4975999999999" height="3.94509831701987" x="0" y="79.89389007130622" fill="#4b91f1" opacity="1" stroke-width="0" stroke="transparent" fill-opacity="1" class="rect-qz-1" data-fill-palette-color="primary" rx="1%" id="qz-1" data-palette-color="#4b91f1"></rect></g><g transform="matrix(1,0,0,1,0.9887999999999693,94.1664708936137)"><svg viewBox="0 0 395.52 43.746431256407334" height="43.746431256407334" width="395.52"><g id="textblocktransform"><svg viewBox="0 0 395.52 43.746431256407334" height="43.746431256407334" width="395.52" id="textblock"><g><svg viewBox="0 0 395.52 43.746431256407334" height="43.746431256407334" width="395.52"><g transform="matrix(1,0,0,1,0,0)"><svg width="395.52" viewBox="4.54 -36.57 428.62 47.41" height="43.746431256407334" data-palette-color="#4b91f1"><path d="M4.54-35.99L10.5-35.99 10.5-4.44 27.05-4.44 27.05 0 4.54 0 4.54-35.99ZM44.24-27.83L44.24-27.83Q47.56-27.83 50.1-26.49 52.63-25.15 54.27-22.92 55.91-20.7 56.61-17.8 57.32-14.89 56.88-11.77L56.88-11.77 37.74-11.77Q37.74-10.21 38.33-8.89 38.91-7.57 39.91-6.62 40.92-5.66 42.31-5.13 43.7-4.59 45.31-4.59L45.31-4.59Q45.85-4.59 46.65-4.71 47.46-4.83 48.36-5.15 49.27-5.47 50.17-5.96 51.07-6.45 51.76-7.13L51.76-7.13 53.9-3.86Q52.29-1.86 50.14-0.83 48 0.2 44.68 0.2L44.68 0.2Q41.99 0.2 39.65-0.9 37.3-2 35.64-3.91 33.98-5.81 33.01-8.35 32.03-10.89 32.03-13.82L32.03-13.82Q32.03-16.7 33.01-19.26 33.98-21.83 35.62-23.73 37.25-25.63 39.5-26.73 41.75-27.83 44.24-27.83ZM37.94-16.06L51.41-16.06Q51.41-17.38 50.93-18.65 50.44-19.92 49.58-20.95 48.73-21.97 47.51-22.58 46.29-23.19 44.87-23.24L44.87-23.24Q43.36-23.24 42.09-22.66 40.82-22.07 39.89-21.09 38.96-20.12 38.45-18.77 37.94-17.43 37.94-16.06L37.94-16.06ZM72.99-23.54L72.99-8.35Q72.99-6.69 73.43-5.76 73.87-4.83 74.68-4.35 75.48-3.86 76.48-3.74 77.49-3.61 78.61-3.61L78.61-3.61 78.61 0Q77.97 0.1 77.34 0.15L77.34 0.15Q76.8 0.2 76.04 0.22 75.29 0.24 74.56 0.24L74.56 0.24Q73.82 0.24 73.07 0.2 72.31 0.15 71.77 0.05L71.77 0.05Q70.11-0.24 69.18-1.39 68.26-2.54 67.79-3.93 67.33-5.32 67.21-6.64 67.08-7.96 67.08-8.69L67.08-8.69 67.08-23.54 63.47-23.54 63.47-27.54 67.08-27.54 67.08-35.35 72.99-35.35 72.99-27.54 77.39-27.54 77.39-23.54 72.99-23.54ZM93.4-23.54L93.4-8.35Q93.4-6.69 93.84-5.76 94.28-4.83 95.09-4.35 95.89-3.86 96.89-3.74 97.89-3.61 99.02-3.61L99.02-3.61 99.02 0Q98.38 0.1 97.75 0.15L97.75 0.15Q97.21 0.2 96.45 0.22 95.7 0.24 94.96 0.24L94.96 0.24Q94.23 0.24 93.47 0.2 92.72 0.15 92.18 0.05L92.18 0.05Q90.52-0.24 89.59-1.39 88.66-2.54 88.2-3.93 87.74-5.32 87.61-6.64 87.49-7.96 87.49-8.69L87.49-8.69 87.49-23.54 83.88-23.54 83.88-27.54 87.49-27.54 87.49-35.35 93.4-35.35 93.4-27.54 97.8-27.54 97.8-23.54 93.4-23.54ZM117.47-27.83L117.47-27.83Q120.79-27.83 123.33-26.49 125.87-25.15 127.5-22.92 129.14-20.7 129.85-17.8 130.56-14.89 130.12-11.77L130.12-11.77 110.98-11.77Q110.98-10.21 111.56-8.89 112.15-7.57 113.15-6.62 114.15-5.66 115.54-5.13 116.93-4.59 118.54-4.59L118.54-4.59Q119.08-4.59 119.89-4.71 120.69-4.83 121.6-5.15 122.5-5.47 123.4-5.96 124.31-6.45 124.99-7.13L124.99-7.13 127.14-3.86Q125.53-1.86 123.38-0.83 121.23 0.2 117.91 0.2L117.91 0.2Q115.22 0.2 112.88-0.9 110.54-2 108.88-3.91 107.22-5.81 106.24-8.35 105.26-10.89 105.26-13.82L105.26-13.82Q105.26-16.7 106.24-19.26 107.22-21.83 108.85-23.73 110.49-25.63 112.73-26.73 114.98-27.83 117.47-27.83ZM111.17-16.06L124.65-16.06Q124.65-17.38 124.16-18.65 123.67-19.92 122.82-20.95 121.96-21.97 120.74-22.58 119.52-23.19 118.11-23.24L118.11-23.24Q116.59-23.24 115.32-22.66 114.05-22.07 113.12-21.09 112.2-20.12 111.68-18.77 111.17-17.43 111.17-16.06L111.17-16.06ZM153.84-27.73L153.84-21.58Q152.48-21.97 150.52-22.02L150.52-22.02Q148.77-22.02 147.03-21.61 145.3-21.19 144.27-20.21L144.27-20.21 144.27-9.77 144.27-9.67 144.27 0 138.37 0 138.37-27.54 143.64-27.54 144.27-24.71Q145.01-25.44 145.81-26.03 146.62-26.61 147.69-26.98 148.77-27.34 150.23-27.54 151.7-27.73 153.84-27.73L153.84-27.73ZM159.6-2.2L159.6-2.2 162.09-6.15Q163.07-5.47 164.41-4.88 165.76-4.3 167.81-4.3L167.81-4.3Q170.49-4.3 172.01-5.13 173.52-5.96 173.52-7.57L173.52-7.57Q173.52-8.74 172.64-9.45 171.76-10.16 170.42-10.67 169.08-11.18 167.54-11.65 166-12.11 164.68-12.79L164.68-12.79Q162.09-14.16 160.8-15.67 159.51-17.19 159.51-19.68L159.51-19.68Q159.51-21.73 160.36-23.29 161.22-24.85 162.58-25.9 163.95-26.95 165.71-27.49 167.47-28.03 169.27-28.03L169.27-28.03Q171.71-28.03 173.76-27.51 175.82-27 177.72-25.78L177.72-25.78 175.82-21.73Q174.35-22.56 172.64-22.88 170.93-23.19 169.27-23.19L169.27-23.19Q167.47-23.19 166.42-22.39 165.37-21.58 165.37-19.87L165.37-19.87Q165.37-18.55 166.32-17.8 167.27-17.04 168.78-16.46 170.3-15.87 172.01-15.28 173.72-14.7 175.2-13.79 176.69-12.89 177.67-11.52 178.65-10.16 178.65-8.01L178.65-8.01Q178.65-5.91 177.82-4.35 176.99-2.78 175.57-1.76 174.15-0.73 172.3-0.24 170.44 0.24 168.34 0.24L168.34 0.24Q167.07 0.24 166 0.17 164.93 0.1 163.9-0.15 162.88-0.39 161.85-0.88 160.82-1.37 159.6-2.2ZM207.55-23.54L207.55-8.35Q207.55-6.69 207.99-5.76 208.43-4.83 209.23-4.35 210.04-3.86 211.04-3.74 212.04-3.61 213.16-3.61L213.16-3.61 213.16 0Q212.53 0.1 211.89 0.15L211.89 0.15Q211.36 0.2 210.6 0.22 209.84 0.24 209.11 0.24L209.11 0.24Q208.38 0.24 207.62 0.2 206.86 0.15 206.33 0.05L206.33 0.05Q204.67-0.24 203.74-1.39 202.81-2.54 202.35-3.93 201.88-5.32 201.76-6.64 201.64-7.96 201.64-8.69L201.64-8.69 201.64-23.54 198.03-23.54 198.03-27.54 201.64-27.54 201.64-35.35 207.55-35.35 207.55-27.54 211.94-27.54 211.94-23.54 207.55-23.54ZM232.35-27.69L232.35-27.69Q235.18-27.69 237.48-26.59 239.77-25.49 241.38-23.58 243-21.68 243.87-19.14 244.75-16.6 244.75-13.67L244.75-13.67Q244.75-10.74 243.83-8.18 242.9-5.62 241.21-3.74 239.53-1.86 237.21-0.81 234.89 0.24 232.06 0.24L232.06 0.24Q229.18 0.24 226.81-0.83 224.44-1.9 222.8-3.81 221.17-5.71 220.29-8.25 219.41-10.79 219.41-13.77 219.41-16.75 220.36-19.34 221.32-21.92 223-23.75 224.68-25.59 227.08-26.64 229.47-27.69 232.35-27.69ZM231.96-4.39L231.96-4.39Q233.42-4.39 234.62-5.1 235.82-5.81 236.67-7.06 237.53-8.3 238.04-10.01 238.55-11.72 238.55-13.67L238.55-13.67Q238.55-15.63 238.09-17.33 237.62-19.04 236.82-20.34 236.01-21.63 234.84-22.41 233.67-23.19 232.2-23.19L232.2-23.19Q230.74-23.19 229.52-22.46 228.3-21.73 227.44-20.48 226.59-19.24 226.12-17.55 225.66-15.87 225.66-13.92L225.66-13.92Q225.66-11.96 226.08-10.23 226.49-8.5 227.32-7.23 228.15-5.96 229.3-5.18 230.45-4.39 231.96-4.39ZM286.4-7.23L290.45-3.66Q288.45-1.71 285.91-0.73 283.37 0.24 280.44 0.24L280.44 0.24Q277.22 0.24 274.51-0.93 271.8-2.1 269.77-4.39 267.75-6.69 266.6-10.16 265.45-13.62 265.45-18.16L265.45-18.16Q265.45-22.71 266.6-26.15 267.75-29.59 269.77-31.88 271.8-34.18 274.53-35.38 277.27-36.57 280.44-36.57L280.44-36.57Q283.37-36.57 285.91-35.6 288.45-34.62 290.45-32.67L290.45-32.67 286.4-29.05Q285.18-30.47 283.69-31.1 282.2-31.74 280.59-31.74L280.59-31.74Q278.78-31.74 277.15-31.05 275.51-30.37 274.22-28.74 272.92-27.1 272.19-24.51 271.46-21.92 271.41-18.16L271.41-18.16Q271.46-14.5 272.16-11.91 272.87-9.33 274.12-7.69 275.36-6.05 276.95-5.3 278.54-4.54 280.29-4.54L280.29-4.54Q282.05-4.54 283.59-5.18 285.13-5.81 286.4-7.23L286.4-7.23ZM318.52-14.89L318.52-8.54 318.52-8.15Q318.52-7.76 318.57-7.01 318.62-6.25 318.77-5.47 318.92-4.69 319.23-4.05 319.55-3.42 320.09-3.22L320.09-3.22 318.52 0.05Q317.89 0.05 317.18-0.24 316.47-0.54 315.81-1.07 315.16-1.61 314.69-2.27 314.23-2.93 313.98-3.71L313.98-3.71Q313.64-2.88 312.79-2.17 311.93-1.46 310.86-0.9 309.78-0.34 308.54-0.05 307.29 0.24 306.22 0.24L306.22 0.24Q304.56 0.24 303.02-0.2 301.48-0.63 300.31-1.61 299.14-2.59 298.48-4.2 297.82-5.81 297.82-8.15L297.82-8.15Q297.82-10.4 298.77-12.04 299.73-13.67 301.22-14.72 302.7-15.77 304.61-16.28 306.51-16.8 308.47-16.8L308.47-16.8 312.62-16.8Q312.62-19.19 312.37-20.61 312.13-22.02 311.54-22.68 310.96-23.34 310.1-23.51 309.25-23.68 308.08-23.68L308.08-23.68Q307-23.68 306.05-23.41 305.1-23.14 304.29-22.78 303.49-22.41 302.88-21.97 302.26-21.53 301.97-21.29L301.97-21.29 299.77-24.66Q300.26-25.2 301.24-25.76 302.22-26.32 303.49-26.76 304.76-27.2 306.24-27.47 307.73-27.73 309.35-27.73L309.35-27.73Q310.81-27.73 312.2-27.44 313.59-27.15 314.74-26.46 315.89-25.78 316.74-24.63 317.6-23.49 317.94-21.78L317.94-21.78Q318.28-20.07 318.4-18.33 318.52-16.6 318.52-14.89L318.52-14.89ZM312.67-6.59L312.67-13.33 309.54-13.33Q308.56-13.33 307.49-13.13 306.42-12.94 305.49-12.4 304.56-11.87 303.95-10.86 303.34-9.86 303.34-8.3L303.34-8.3Q303.34-5.86 304.44-4.79 305.54-3.71 307.64-3.71L307.64-3.71Q309.1-3.71 310.44-4.49 311.79-5.27 312.67-6.59L312.67-6.59ZM327.31-2.2L327.31-2.2 329.8-6.15Q330.78-5.47 332.12-4.88 333.46-4.3 335.51-4.3L335.51-4.3Q338.2-4.3 339.71-5.13 341.23-5.96 341.23-7.57L341.23-7.57Q341.23-8.74 340.35-9.45 339.47-10.16 338.13-10.67 336.78-11.18 335.25-11.65 333.71-12.11 332.39-12.79L332.39-12.79Q329.8-14.16 328.51-15.67 327.21-17.19 327.21-19.68L327.21-19.68Q327.21-21.73 328.07-23.29 328.92-24.85 330.29-25.9 331.66-26.95 333.41-27.49 335.17-28.03 336.98-28.03L336.98-28.03Q339.42-28.03 341.47-27.51 343.52-27 345.43-25.78L345.43-25.78 343.52-21.73Q342.06-22.56 340.35-22.88 338.64-23.19 336.98-23.19L336.98-23.19Q335.17-23.19 334.12-22.39 333.07-21.58 333.07-19.87L333.07-19.87Q333.07-18.55 334.03-17.8 334.98-17.04 336.49-16.46 338-15.87 339.71-15.28 341.42-14.7 342.91-13.79 344.4-12.89 345.38-11.52 346.35-10.16 346.35-8.01L346.35-8.01Q346.35-5.91 345.52-4.35 344.69-2.78 343.28-1.76 341.86-0.73 340.01-0.24 338.15 0.24 336.05 0.24L336.05 0.24Q334.78 0.24 333.71 0.17 332.63 0.1 331.61-0.15 330.58-0.39 329.56-0.88 328.53-1.37 327.31-2.2ZM378.09-19.19L378.09-19.19Q378.68-16.94 378.68-14.16L378.68-14.16Q378.68-11.38 378.02-8.76 377.36-6.15 376.01-4.15 374.67-2.15 372.65-0.95 370.62 0.24 367.88 0.24L367.88 0.24Q366.42 0.24 365.05-0.05 363.69-0.34 362.61-0.85 361.54-1.37 360.83-1.98 360.12-2.59 359.97-3.27L359.97-3.27 359.97 10.84 354.02 10.84 354.02-27.54 359.34-27.54 359.97-24.76Q360.95-26.12 362.93-26.95 364.91-27.78 367.3-27.78L367.3-27.78Q368.91-27.78 370.57-27.34 372.23-26.9 373.67-25.88 375.11-24.85 376.28-23.19 377.46-21.53 378.09-19.19ZM365.93-4.35L365.93-4.35Q367.4-4.35 368.59-5.08 369.79-5.81 370.64-7.06 371.5-8.3 371.99-10.03 372.47-11.77 372.47-13.72L372.47-13.72Q372.47-15.63 372.04-17.33 371.6-19.04 370.79-20.36 369.98-21.68 368.84-22.46 367.69-23.24 366.18-23.24L366.18-23.24Q364.71-23.24 363.49-22.51 362.27-21.78 361.39-20.53 360.51-19.29 360.05-17.6 359.58-15.92 359.58-13.96L359.58-13.96Q359.58-12.01 360-10.28 360.41-8.54 361.24-7.23 362.07-5.91 363.25-5.13 364.42-4.35 365.93-4.35ZM396.79-27.83L396.79-27.83Q400.11-27.83 402.65-26.49 405.19-25.15 406.82-22.92 408.46-20.7 409.17-17.8 409.87-14.89 409.44-11.77L409.44-11.77 390.29-11.77Q390.29-10.21 390.88-8.89 391.47-7.57 392.47-6.62 393.47-5.66 394.86-5.13 396.25-4.59 397.86-4.59L397.86-4.59Q398.4-4.59 399.21-4.71 400.01-4.83 400.91-5.15 401.82-5.47 402.72-5.96 403.62-6.45 404.31-7.13L404.31-7.13 406.46-3.86Q404.85-1.86 402.7-0.83 400.55 0.2 397.23 0.2L397.23 0.2Q394.54 0.2 392.2-0.9 389.86-2 388.19-3.91 386.53-5.81 385.56-8.35 384.58-10.89 384.58-13.82L384.58-13.82Q384.58-16.7 385.56-19.26 386.53-21.83 388.17-23.73 389.81-25.63 392.05-26.73 394.3-27.83 396.79-27.83ZM390.49-16.06L403.97-16.06Q403.97-17.38 403.48-18.65 402.99-19.92 402.14-20.95 401.28-21.97 400.06-22.58 398.84-23.19 397.42-23.24L397.42-23.24Q395.91-23.24 394.64-22.66 393.37-22.07 392.44-21.09 391.52-20.12 391-18.77 390.49-17.43 390.49-16.06L390.49-16.06ZM433.16-27.73L433.16-21.58Q431.8-21.97 429.84-22.02L429.84-22.02Q428.09-22.02 426.35-21.61 424.62-21.19 423.59-20.21L423.59-20.21 423.59-9.77 423.59-9.67 423.59 0 417.68 0 417.68-27.54 422.96-27.54 423.59-24.71Q424.33-25.44 425.13-26.03 425.94-26.61 427.01-26.98 428.09-27.34 429.55-27.54 431.01-27.73 433.16-27.73L433.16-27.73Z" opacity="1" transform="matrix(1,0,0,1,0,0)" fill="#4b91f1" class="wordmark-text-0" data-fill-palette-color="primary" id="text-0"></path></svg></g></svg></g></svg></g></svg></g><g transform="matrix(1,0,0,1,174.3805543401034,0)"><svg viewBox="0 0 48.73649131979313 60.45756799635493" height="60.45756799635493" width="48.73649131979313"><g><svg xmlns="http://www.w3.org/2000/svg" xmlns:xlink="http://www.w3.org/1999/xlink" version="1.1" x="0" y="0" viewBox="11.699999999999998 2.5 76.6 95.02222222222223" enable-background="new 0 0 100 100" xml:space="preserve" height="60.45756799635493" width="48.73649131979313" class="icon-icon-0" data-fill-palette-color="accent" id="icon-0"><g fill="#4b91f1" data-fill-palette-color="accent"><circle cx="74.3" cy="45.4" r="5.0" fill="#4b91f1" data-fill-palette-color="accent"></circle><path d="M50 2.5c-20.3 0-36.9 15.8-38.2 35.7h-0.1v1.6 53.5c0 0 2.2 6.3 8.8-1.6 6.7-7.9 11.5 1.6 11.5 1.6s5.2 9.5 11.5 0 12.5 0 12.5 0 5.8 8.1 11.1 0c5.3-8.1 10.6-1.6 10.6-1.6s10.2 11 10.2 0c0-8.2 0.4-49 0.4-50.9C88.3 19.7 71.2 2.5 50 2.5zM47.2 57c-5.5 0-10-5.2-10-11.7 0-6.4 4.5-11.7 10-11.7 5.5 0 10 5.2 10 11.7C57.2 51.8 52.8 57 47.2 57zM71.1 57c-5.5 0-10-5.2-10-11.7 0-6.4 4.5-11.7 10-11.7 5.5 0 10 5.2 10 11.7C81.1 51.8 76.6 57 71.1 57z" fill="#4b91f1" data-fill-palette-color="accent"></path><circle cx="50.4" cy="45.4" r="5.0" fill="#4b91f1" data-fill-palette-color="accent"></circle></g></svg></g></svg></g><g></g></svg></g><defs></defs></svg><rect width="395.5199999999999" height="137.22676830847868" fill="none" stroke="none" visibility="hidden"></rect></g></svg></g></svg>